<svg xmlns="http://www.w3.org/2000/svg" viewBox="0 0 6000 680" preserveAspectRatio="none" fill="none" stroke="currentColor" stroke-width="1.5">
  <path d="M 360.571 0 C 446.58 235.538 440.082 526.363 133.093 603.62 C -173.896 680.877 425.639 233.573 464.299 603.62 C 502.959 973.667 -217.197 940.009 116.182 983.738 C 449.561 1027.467 30.481 1760.187 507.682 1393.045 C 984.884 1025.903 -249.339 1619.076 194.182 1846.885 C 637.703 2074.694 123.898 2268.192 407.182 2328.747 C 690.467 2389.301 -187.088 1867.048 149.182 2451 C 485.453 3034.952 506.764 3053.182 330.682 3014.5 C 154.601 2975.818 -170.123 3168.482 175.182 3469.102 C 520.487 3769.722 151.432 3891.534 52.182 3825.369 C -47.067 3759.204 360.857 3589.284 451.182 3942.457 C 541.508 4295.629 161.942 3896.327 52.182 4025.519 C -57.577 4154.711 151.889 4413.512 333.682 4327.746 C 515.476 4241.979 72.774 4385.053 279.932 4843.132 C 487.091 5301.212 213.84 5167.326 194.182 5072.805 C 174.525 4978.283 552.525 5142.487 421.182 5338.504 C 289.84 5534.52 -245.346 5541.779 133.182 5370 C 511.711 5198.221 792.691 5577.671 414.682 5715.5 C 36.673 5853.329 279.932 6000 279.932 6000" />
</svg>
