<svg xmlns="http://www.w3.org/2000/svg" viewBox="0 0 6000 680" preserveAspectRatio="none" fill="none" stroke="currentColor" stroke-width="1.5">
  <path d="M 341.187 0 C 538.021 399.076 306.264 546.046 139.687 585.5 C -26.89 624.954 118.792 422.451 321.187 455 C 523.581 487.549 460.807 842.381 194.833 893.147 C -71.14 943.913 211.491 879.201 242.816 1124.592 C 274.141 1369.983 207.293 1632.667 449.243 1454.439 C 691.193 1276.211 643.114 1162.574 396.262 1365.074 C 149.409 1567.574 -150.721 1672.598 180.339 1872.647 C 511.398 2072.695 211.64 2164.647 290.799 2272.781 C 369.959 2380.914 602.428 2358.863 279.687 2208.5 C -43.055 2058.137 22.81 2188.893 262.309 2667.894 C 501.809 3146.894 391.286 3014.308 194.833 3014.308 C -1.619 3014.308 -63.66 3264.748 154.348 3438.039 C 372.356 3611.329 389.415 3814.198 154.348 3833.654 C -80.72 3853.111 10.998 3747.287 139.853 3730.232 C 268.708 3713.176 328.18 3748.217 396.262 3823.613 C 464.344 3899.009 582.885 4195.552 242.816 4044.515 C -97.253 3893.478 -57.324 4378.029 221.324 4344.741 C 499.972 4311.453 278.628 4286.613 194.833 4562.631 C 111.039 4838.648 451.543 5058.856 353.277 5157.56 C 255.011 5256.264 77.947 4901.845 262.309 5019.998 C 446.671 5138.152 537.337 5323.513 333.784 5441.72 C 130.231 5559.928 -215.225 5528.704 194.833 5369.927 C 604.892 5211.15 669.485 5612.896 396.262 5699.774 C 123.039 5786.652 124.921 5926.801 279.803 6000" />
</svg>
