<svg xmlns="http://www.w3.org/2000/svg" viewBox="0 0 6000 680" preserveAspectRatio="none" fill="none" stroke="currentColor" stroke-width="1.5">
  <path d="M 258.784 0 C 172.776 235.538 179.274 526.363 486.263 603.62 C 793.252 680.877 193.717 233.573 155.057 603.62 C 116.397 973.667 836.552 940.009 503.173 983.738 C 169.794 1027.467 588.875 1760.187 111.673 1393.045 C -365.528 1025.903 868.694 1619.076 425.173 1846.885 C -18.348 2074.694 495.457 2268.192 212.173 2328.747 C -71.111 2389.301 806.443 1867.048 470.173 2451 C 133.903 3034.952 112.591 3053.182 288.673 3014.5 C 464.755 2975.818 789.478 3168.482 444.173 3469.102 C 98.868 3769.722 467.924 3891.534 567.173 3825.369 C 666.422 3759.204 258.499 3589.284 168.173 3942.457 C 77.848 4295.629 457.414 3896.327 567.173 4025.519 C 676.933 4154.711 467.466 4413.512 285.673 4327.746 C 103.88 4241.979 546.582 4385.053 339.423 4843.132 C 132.265 5301.212 405.515 5167.326 425.173 5072.805 C 444.831 4978.283 66.831 5142.487 198.173 5338.504 C 329.515 5534.52 864.701 5541.779 486.173 5370 C 107.645 5198.221 -173.336 5577.671 204.673 5715.5 C 582.682 5853.329 339.423 6000 339.423 6000" />
</svg>
