<svg xmlns="http://www.w3.org/2000/svg" viewBox="0 0 6000 680" preserveAspectRatio="none" fill="none" stroke="currentColor" stroke-width="1.5">
  <path d="M 266.813 0 C 69.979 399.076 301.736 546.046 468.313 585.5 C 634.89 624.954 489.208 422.451 286.813 455 C 84.419 487.549 147.193 842.381 413.167 893.147 C 679.14 943.913 396.509 879.201 365.184 1124.592 C 333.859 1369.983 400.707 1632.667 158.757 1454.439 C -83.193 1276.211 -35.114 1162.574 211.738 1365.074 C 458.591 1567.574 758.721 1672.598 427.661 1872.647 C 96.602 2072.695 396.36 2164.647 317.201 2272.781 C 238.041 2380.914 5.572 2358.863 328.313 2208.5 C 651.055 2058.137 585.19 2188.893 345.691 2667.894 C 106.191 3146.894 216.714 3014.308 413.167 3014.308 C 609.619 3014.308 671.66 3264.748 453.652 3438.039 C 235.644 3611.329 218.585 3814.198 453.652 3833.654 C 688.72 3853.111 597.002 3747.287 468.147 3730.232 C 339.292 3713.176 279.82 3748.217 211.738 3823.613 C 143.656 3899.009 25.115 4195.552 365.184 4044.515 C 705.253 3893.478 665.324 4378.029 386.676 4344.741 C 108.028 4311.453 329.372 4286.613 413.167 4562.631 C 496.961 4838.648 156.457 5058.856 254.723 5157.56 C 352.989 5256.264 530.053 4901.845 345.691 5019.998 C 161.329 5138.152 70.663 5323.513 274.216 5441.72 C 477.769 5559.928 823.225 5528.704 413.167 5369.927 C 3.108 5211.15 -61.485 5612.896 211.738 5699.774 C 484.961 5786.652 483.079 5926.801 328.197 6000" />
</svg>
