<svg xmlns="http://www.w3.org/2000/svg" viewBox="0 0 680 6000" preserveAspectRatio="none" fill="none" stroke="currentColor" stroke-width="1.5">
  <path d="M 292.611 0 C 206.603 235.538 213.101 526.363 520.09 603.62 C 827.079 680.877 227.543 233.573 188.884 603.62 C 150.224 973.667 870.379 940.009 537 983.738 C 203.621 1027.467 622.702 1760.187 145.5 1393.045 C -331.701 1025.903 902.521 1619.076 459 1846.885 C 15.479 2074.694 529.284 2268.192 246 2328.747 C -37.284 2389.301 840.27 1867.048 504 2451 C 167.73 3034.952 146.418 3053.182 322.5 3014.5 C 498.582 2975.818 823.305 3168.482 478 3469.102 C 132.695 3769.722 501.751 3891.534 601 3825.369 C 700.249 3759.204 292.326 3589.284 202 3942.457 C 111.675 4295.629 491.241 3896.327 601 4025.519 C 710.76 4154.711 501.293 4413.512 319.5 4327.746 C 137.707 4241.979 580.408 4385.053 373.25 4843.132 C 166.092 5301.212 439.342 5167.326 459 5072.805 C 478.658 4978.283 100.658 5142.487 232 5338.504 C 363.342 5534.52 898.528 5541.779 520 5370 C 141.472 5198.221 -139.509 5577.671 238.5 5715.5 C 616.509 5853.329 373.25 6000 373.25 6000" />
</svg>
